# xmcd
#
# Track frame offsets: 
#        150
#        17262
#        26812
#        40217
#        53990
#        67812
#        81625
#        95492
#        109510
#        121455
#        133837
#        145972
#        157530
#        170775
#        183435
#        194042
#        205727
#        218165
#        229875
#        242582
#        255855
#        267427
#        282067
#        296670
#        310470
#        322742
#
# Disc length: 4449 seconds
#
# Revision: 4
# Processed by: cddbd v1.5.2PL0 Copyright (c) Steve Scherf et al.
# Submitted via: ExactAudioCopy v1.0b6
#
DISCID=79115f1a
DTITLE=Joe Hill Louis - The Be-Bop Boy With Walter Horton And Mose Vin
DTITLE=son
DYEAR=1992
DGENRE=Blues
TTITLE0=She Treats Me Mean And Evil -1952
TTITLE1=Dorothy Mae -1952
TTITLE2=Sweetest Gal In Town -1992
TTITLE3=Keep Your Arms Around Me -1969
TTITLE4=Got A New Woman -1969
TTITLE5=I'm A Poor Boy -1969
TTITLE6=Walter Horton - In The Mood (Instrumental) -1972
TTITLE7=Walter Horton - West Winds Are Blowing -1987
TTITLE8=Walter Horton - Little Walter's Boogie -1990
TTITLE9=Walter Horton - We All Got To Go (Sometime) -1992
TTITLE10=We All Gotta Go Sometime -1992
TTITLE11=Walter Horton - Little Walter's Boogie -1992
TTITLE12=Tigerman (Demo) -1969
TTITLE13=Mose Vinson - 44 Blues -1992
TTITLE14=My Love Has Gone -1992
TTITLE15=Mose Vinson - Mistreatin' Boogie
TTITLE16=MoseVinson - My Love Has Gone -1992
TTITLE17=Mose Vinson - Worry You Off My Mind -1992
TTITLE18=Mose Vinson - Reap What You Saw -1987
TTITLE19=Walter Horton - Walter's Instrumental
TTITLE20=Hydramatic Woman -1969
TTITLE21=Tigerman -1969
TTITLE22=Keep Your Arms Arround Me -1992
TTITLE23=She Comes To See Me Sometime -1953
TTITLE24=We All Gotta Go Sometime -1953
TTITLE25=Shine Boy -1987
EXTD=
EXTT0=
EXTT1=
EXTT2=
EXTT3=
EXTT4=
EXTT5=
EXTT6=
EXTT7=
EXTT8=
EXTT9=
EXTT10=
EXTT11=
EXTT12=
EXTT13=
EXTT14=
EXTT15=
EXTT16=
EXTT17=
EXTT18=
EXTT19=
EXTT20=
EXTT21=
EXTT22=
EXTT23=
EXTT24=
EXTT25=
PLAYORDER=
